<svg width="256" height="256" viewBox="0 0 256 256" fill="none" xmlns="http://www.w3.org/2000/svg">
<path d="M0 128C0 57.3076 57.3076 0 128 0V0C198.692 0 256 57.3076 256 128V128C256 198.692 198.692 256 128 256V256C57.3076 256 0 198.692 0 128V128Z" fill="url(#paint0_linear_245_126)"/>
<g clip-path="url(#clip0_245_126)">
<path d="M163.136 106.816H151.808C151.159 106.817 150.518 106.681 149.926 106.416C149.334 106.152 148.805 105.764 148.373 105.28L143.765 100.117C143.427 99.7354 143.012 99.4297 142.546 99.2203C142.081 99.011 141.577 98.9027 141.067 98.9027C140.557 98.9027 140.052 99.011 139.587 99.2203C139.122 99.4297 138.706 99.7354 138.368 100.117L134.4 104.533C133.758 105.251 132.973 105.825 132.094 106.218C131.215 106.612 130.264 106.815 129.301 106.816H67.4347C65.6315 111.92 64.4775 117.231 64 122.624H122.496C123.005 122.625 123.509 122.523 123.978 122.325C124.447 122.127 124.872 121.837 125.227 121.472L130.688 115.797C131.023 115.444 131.427 115.164 131.874 114.973C132.322 114.782 132.804 114.685 133.291 114.688H133.504C134.016 114.688 134.522 114.796 134.989 115.006C135.456 115.216 135.873 115.522 136.213 115.904L140.8 121.067C141.231 121.553 141.76 121.943 142.352 122.211C142.943 122.479 143.585 122.62 144.235 122.624H192C191.543 117.234 190.411 111.923 188.629 106.816H163.029H163.136Z" fill="white"/>
<path d="M99.4133 155.84C99.9189 155.838 100.419 155.735 100.884 155.537C101.349 155.339 101.77 155.051 102.123 154.688L107.584 149.013C107.921 148.663 108.326 148.385 108.773 148.194C109.22 148.004 109.701 147.905 110.187 147.904H110.4C110.905 147.91 111.402 148.021 111.862 148.231C112.321 148.44 112.731 148.743 113.067 149.12L117.653 154.283C118.084 154.775 118.616 155.168 119.212 155.437C119.808 155.706 120.455 155.843 121.109 155.84H185.856C188.312 150.778 190.084 145.412 191.125 139.883H129.003C128.351 139.884 127.706 139.748 127.111 139.484C126.515 139.219 125.982 138.831 125.547 138.347L120.96 133.163C120.622 132.781 120.206 132.475 119.741 132.266C119.276 132.056 118.771 131.948 118.261 131.948C117.751 131.948 117.247 132.056 116.782 132.266C116.316 132.475 115.901 132.781 115.563 133.163L111.616 137.6C110.979 138.318 110.197 138.893 109.322 139.286C108.447 139.68 107.498 139.883 106.539 139.883H64.8746C65.9155 145.412 67.6875 150.778 70.144 155.84H99.4133Z" fill="white"/>
<path d="M145.323 89.6C145.829 89.6029 146.331 89.5022 146.796 89.3041C147.262 89.106 147.683 88.8146 148.032 88.448L153.6 82.7306C153.938 82.3837 154.343 82.1085 154.791 81.9215C155.238 81.7346 155.718 81.6397 156.203 81.6426H156.416C156.926 81.6386 157.432 81.7431 157.899 81.949C158.366 82.155 158.784 82.4577 159.125 82.8373L163.712 88.0213C164.148 88.5062 164.68 88.8936 165.276 89.1583C165.872 89.423 166.516 89.559 167.168 89.5573H179.477C173.471 81.599 165.699 75.1438 156.774 70.7001C147.848 66.2565 138.013 63.9457 128.043 63.9498C118.072 63.954 108.239 66.2729 99.3173 70.724C90.3955 75.175 82.629 81.6367 76.6294 89.6H145.323Z" fill="white"/>
<path d="M120.597 171.648H103.765C103.106 171.656 102.453 171.523 101.85 171.258C101.247 170.993 100.707 170.602 100.267 170.112L95.68 164.928C95.3381 164.552 94.9214 164.252 94.4567 164.046C93.992 163.841 93.4894 163.735 92.9813 163.735C92.4732 163.735 91.9707 163.841 91.5059 164.046C91.0412 164.252 90.6246 164.552 90.2826 164.928L86.336 169.365C85.6993 170.083 84.9175 170.658 84.0422 171.051C83.167 171.445 82.2183 171.648 81.2587 171.648H81.0667C87.0843 178.065 94.354 183.18 102.426 186.677C110.499 190.173 119.203 191.977 128 191.977C136.797 191.977 145.501 190.173 153.573 186.677C161.646 183.18 168.916 178.065 174.933 171.648H120.597Z" fill="white"/>
</g>
<defs>
<linearGradient id="paint0_linear_245_126" x1="128" y1="0" x2="128" y2="256" gradientUnits="userSpaceOnUse">
<stop stop-color="#141416"/>
<stop offset="1" stop-color="#2D2D58"/>
</linearGradient>
<clipPath id="clip0_245_126">
<rect width="128" height="128" fill="white" transform="translate(64 64)"/>
</clipPath>
</defs>
</svg>
