<svg width="256" height="256" viewBox="0 0 256 256" fill="none" xmlns="http://www.w3.org/2000/svg">
<path d="M206.141 43.744H48.6934V186.845H206.141V43.744Z" fill="white"/>
<path fill-rule="evenodd" clip-rule="evenodd" d="M255.089 127.672C255.089 198.09 198.005 255.174 127.587 255.174C57.1694 255.174 0.0848389 198.09 0.0848389 127.672C0.0848389 57.2542 57.1694 0.169678 127.587 0.169678C198.005 0.169678 255.089 57.2542 255.089 127.672ZM91.4564 178.411H66.7118C61.5123 178.411 58.9439 178.411 57.3779 177.409C55.6864 176.313 54.6528 174.496 54.5275 172.491C54.4334 170.644 55.7178 168.388 58.2862 163.877L119.384 56.1848C121.983 51.6117 123.299 49.3252 124.959 48.4795C126.744 47.5712 128.874 47.5712 130.66 48.4795C132.32 49.3252 133.635 51.6117 136.235 56.1848L148.795 78.1104L148.859 78.2223C151.667 83.1283 153.091 85.6162 153.713 88.2273C154.402 91.0777 154.402 94.0846 153.713 96.935C153.086 99.566 151.677 102.072 148.826 107.052L116.734 163.783L116.65 163.929C113.824 168.875 112.392 171.382 110.406 173.274C108.245 175.341 105.645 176.844 102.795 177.691C100.195 178.411 97.2824 178.411 91.4564 178.411ZM153.945 178.411H189.401C194.631 178.411 197.263 178.411 198.83 177.379C200.521 176.282 201.585 174.433 201.681 172.43C201.771 170.642 200.514 168.474 198.052 164.226C197.968 164.081 197.883 163.934 197.796 163.784L180.036 133.402L179.834 133.059C177.338 128.839 176.078 126.708 174.46 125.884C172.676 124.976 170.576 124.976 168.791 125.884C167.162 126.73 165.847 128.954 163.247 133.433L145.55 163.815L145.49 163.92C142.899 168.392 141.604 170.627 141.698 172.46C141.823 174.465 142.856 176.313 144.548 177.409C146.083 178.411 148.714 178.411 153.945 178.411Z" fill="#E84142"/>
</svg>
