<svg width="256" height="256" viewBox="0 0 256 256" fill="none" xmlns="http://www.w3.org/2000/svg">
<path d="M256 128C256 198.692 198.692 256 128 256C57.3075 256 0 198.692 0 128C0 57.3075 57.3075 0 128 0C198.692 0 256 57.3075 256 128Z" fill="#25478A"/>
<path fill-rule="evenodd" clip-rule="evenodd" d="M126.052 98.9L140.996 117.131L118.578 120.903L126.052 98.9ZM100.519 45.466C101.766 41.6933 103.633 33.5212 113.597 30.3773C118.578 29.1197 125.429 31.0061 129.787 36.0343C133.524 41.0645 134.149 46.7215 131.033 55.5224L107.37 122.788L94.9171 124.674L121.694 49.2386C122.317 47.9811 122.94 45.466 121.694 43.5796C120.448 41.0665 117.957 40.4378 115.467 41.0665C112.976 42.3241 112.353 44.2084 111.73 46.0947L83.0828 127.189C78.7228 127.818 74.3648 128.447 70.6297 130.331L100.519 45.466ZM174 141.018L131.033 88.2128C132.278 83.8134 133.524 80.0407 135.393 76.268L185.834 137.245C187.078 139.134 188.944 141.018 191.436 140.389C193.927 140.389 195.794 138.501 195.794 136.617C196.416 133.473 195.171 131.588 193.927 130.329L139.13 64.3253C140.375 59.9238 142.242 55.5244 141.619 50.4942L200.778 122.159C205.759 128.445 208.247 133.475 206.38 139.761C203.893 146.048 197.664 151.703 190.813 151.703C182.72 151.077 178.985 146.677 174 141.018ZM84.3305 170.563C76.8562 171.818 70.0068 170.563 65.6468 164.279C62.5325 159.247 62.5326 153.588 63.7783 149.192C66.8905 142.904 72.4962 140.389 79.3456 138.501L148.467 126.558C150.958 129.702 153.451 132.844 155.939 135.99L80.5914 149.192C78.7228 149.821 76.2314 149.821 74.3648 152.332C73.1191 154.847 73.742 157.364 75.6105 159.247C77.4791 161.135 80.5934 160.502 81.8371 159.875L164.659 145.417C167.146 148.561 170.261 152.332 174.618 154.22L84.3305 170.563Z" fill="#CF4037"/>
<path fill-rule="evenodd" clip-rule="evenodd" d="M223.604 163.072L222.509 163.624L221.957 159.785H223.055C224.15 159.236 224.698 159.785 224.698 160.333C225.247 160.885 224.698 161.431 224.15 161.431L225.245 163.074H224.696L223.602 161.979H223.053L223.604 163.072ZM224.152 164.717C222.509 165.265 220.862 164.169 220.316 161.976C219.769 159.783 221.41 158.686 223.057 158.14C224.7 157.591 226.347 158.688 226.893 160.881C227.44 163.072 225.795 164.171 224.152 164.717ZM223.057 158.688C221.959 159.236 220.864 160.331 221.41 161.978C221.41 163.072 222.509 164.171 224.152 164.171C225.247 163.622 226.345 162.524 225.795 160.881C225.795 159.783 224.152 158.688 223.057 158.688ZM123.295 175.679L128.227 204.181L153.99 199.799L152.892 193.221L135.353 195.963L134.805 191.027L150.701 188.285L149.606 182.256L133.71 184.997L133.16 180.613L150.154 177.872L149.059 171.294L123.295 175.679ZM172.079 180.613C170.981 180.613 166.597 181.708 166.597 181.708L179.751 194.863L190.165 193.22L179.751 183.353C179.751 183.353 185.781 181.16 184.686 174.034C183.039 166.908 178.108 166.358 175.367 166.908C174.819 166.908 152.89 170.744 152.89 170.744L158.373 198.697L167.143 197.602L163.307 175.677C163.307 175.677 169.884 174.034 170.979 174.034C172.078 174.034 174.819 172.939 175.367 176.775C175.915 180.067 173.174 180.613 172.079 180.613ZM207.161 180.613L208.804 189.932L200.037 191.575L198.391 181.708L182.494 165.264L192.908 163.621L201.132 174.034C201.132 174.034 201.68 174.034 201.68 174.582C201.68 174.034 202.228 173.488 202.228 173.488L206.613 161.428L216.481 159.234L207.161 180.613ZM108.495 198.7C108.495 198.152 107.945 197.606 107.945 197.606L96.9834 180.615L88.213 182.258L105.206 208.021L115.072 206.378L122.198 176.232L113.428 177.875L109.042 197.604C109.042 197.604 108.495 198.152 108.495 198.7ZM81.6356 183.354L70.1239 184.997L63 215.695L72.3169 214.048L73.9617 207.471L86.0199 205.281L89.3095 211.31L98.6282 209.664L81.6356 183.354Z" fill="white"/>
<path fill-rule="evenodd" clip-rule="evenodd" d="M75.0582 200.894L76.703 191.575V190.48C77.2513 191.028 77.2513 191.575 77.2513 191.575L82.1856 199.251L75.0582 200.894V200.894ZM223.603 160.881C224.152 160.881 224.152 160.881 224.152 160.329H223.055V161.428L223.603 160.881V160.881Z" fill="#25478A"/>
</svg>
