<svg width="256" height="256" viewBox="0 0 256 256" fill="none" xmlns="http://www.w3.org/2000/svg">
<g clip-path="url(#clip0_245_582)">
<path d="M50.6521 230.204C64.6509 240.577 85.7401 240.031 109.92 228.566C135.009 216.738 160.279 195.082 181.005 167.239C189.368 156.139 196.458 144.674 202.458 133.209C197.003 128.842 191.004 124.656 184.823 120.471C182.641 124.656 179.914 128.66 176.46 132.299C158.098 152.863 121.919 159.414 83.1949 164.51C64.8328 167.057 49.7431 168.331 37.3805 168.331C23.5635 168.331 13.0189 166.693 5.01959 163.6C12.6553 190.351 29.0176 213.644 50.6521 230.204Z" fill="#0085F1"/>
<path d="M171.543 126.898C174.466 123.438 177.023 119.796 179.033 115.971C168.437 109.233 156.745 102.859 144.688 96.8496C113.266 81.37 81.6608 70.6254 56.0847 66.801C32.5182 63.1587 16.0764 66.0725 11.8746 74.2676C4.20179 90.6578 0 108.869 0 128.173C0 136.914 0.913421 145.474 2.5576 153.669C14.7976 161.682 39.643 162.774 82.3916 156.947C119.842 151.666 154.918 145.474 171.543 126.898Z" fill="black"/>
<path d="M205.428 196.784C209.25 180.701 215.438 164.8 222.536 150.362C221.99 149.631 221.262 149.082 220.534 148.351C216.894 144.696 212.708 141.041 208.34 137.203C202.333 148.717 195.235 160.048 187.045 171.014C165.568 199.891 139.178 222.737 112.969 234.982C99.5008 241.379 86.7604 244.669 75.2941 244.669C91.3105 251.979 109.147 256 127.893 256C143.364 256 158.106 253.259 171.757 248.141C171.939 248.324 195.963 236.992 205.428 196.784Z" fill="black"/>
<path d="M228.482 155.608C222.125 168.443 216.517 182.929 212.965 197.965C208.852 215.018 202.308 227.303 195.765 235.922C215.021 224.003 230.912 207.317 241.756 187.513L241.569 187.33C244.934 180.362 240.073 168.81 228.482 155.608Z" fill="#0085F1"/>
<path d="M140.866 8.34184C152.581 16.5023 164.112 29.015 176.376 46.7868C191.569 68.9108 195.413 92.6669 187.542 112.796C193.948 116.967 199.989 121.138 205.48 125.49C212.619 110.62 217.378 95.7498 219.574 81.9676C223.601 56.0354 218.11 36.0875 204.199 25.7509V25.5695C182.6 9.61125 155.875 0 127.138 0C126.588 0 126.039 0 125.49 0C130.798 2.17613 135.924 4.8963 140.866 8.34184Z" fill="black"/>
<path d="M212.497 130.979C217.428 135.223 222.008 139.467 226.058 143.711L226.235 143.895C235.217 125.997 245.08 111.235 252.654 102.747C248.603 81.1582 239.268 61.4144 226.235 45.1765C229.053 55.8788 229.405 68.6107 227.291 82.8189C225.178 98.1341 220.07 114.557 212.497 130.979Z" fill="#0085F1"/>
<path d="M98.5988 2.06611V2.24976C65.5949 10.1461 37.6684 31.0805 20.0784 59.1767C29.1454 56.4221 41.6579 56.2385 57.2532 58.6258C83.5475 62.6658 115.463 73.6839 147.379 89.6601C159.348 95.5365 170.591 101.964 181.109 108.758C182.741 103.8 183.829 98.6583 184.01 93.3328C184.554 79.3766 179.839 64.5021 170.409 50.3622C146.11 14.3697 123.986 -1.05569 98.5988 2.06611Z" fill="#0085F1"/>
<path d="M256 127.254C256 122.204 255.648 117.154 255.119 112.105C248.779 120.22 240.325 132.844 232.575 148.174C240.325 156.83 245.432 165.126 247.898 172.34C253.182 158.453 256 143.124 256 127.254Z" fill="black"/>
</g>
<defs>
<clipPath id="clip0_245_582">
<rect width="256" height="256" fill="white"/>
</clipPath>
</defs>
</svg>
