<svg width="256" height="256" viewBox="0 0 256 256" fill="none" xmlns="http://www.w3.org/2000/svg">
<path d="M128 256C198.692 256 256 198.692 256 128C256 57.3076 198.692 0 128 0C57.3076 0 0 57.3076 0 128C0 198.692 57.3076 256 128 256Z" fill="#F0C107"/>
<path d="M128.512 36.608C77.312 36.608 35.84 78.08 35.84 129.28C35.84 180.48 77.568 221.952 128.512 221.952C179.456 221.952 221.184 180.48 221.184 129.28C221.184 78.08 179.712 36.608 128.512 36.608ZM128.512 48.64C134.4 48.64 140.032 49.408 145.408 50.432C142.848 52.736 140.8 55.552 138.496 58.624C164.608 58.624 146.432 80.896 150.528 84.736C152.576 86.784 158.464 82.688 160.512 82.688V87.04C160.512 91.136 144.384 97.024 142.336 109.312C140.288 133.632 158.464 121.344 168.448 129.536C176.384 139.52 176.384 159.744 184.576 165.888C186.88 155.392 193.024 153.6 197.12 143.36C198.912 139.776 203.776 131.84 208.896 124.16C208.896 125.952 208.896 127.488 208.896 129.28C208.896 173.824 173.056 209.92 128.512 209.92C83.968 209.92 48.128 173.824 48.128 129.28C48.128 121.856 49.152 114.688 50.944 108.032C54.528 113.92 57.344 119.808 58.112 123.392C68.096 133.376 72.192 143.616 72.192 155.648C82.176 167.68 98.304 175.872 98.304 199.936L104.448 201.984C105.984 198.912 105.216 195.328 106.496 192C116.48 163.84 132.608 165.888 132.608 145.664C116.48 141.568 108.544 119.552 80.128 135.68C76.032 133.632 76.032 127.744 76.032 123.648C69.888 119.552 66.048 115.456 68.096 107.52L74.24 111.616C84.224 91.392 110.592 85.504 116.48 75.264C118.272 68.352 113.92 59.904 108.8 51.456C115.2 49.408 121.856 48.64 128.512 48.64Z" fill="black"/>
</svg>
