<svg width="256" height="256" viewBox="0 0 256 256" fill="none" xmlns="http://www.w3.org/2000/svg">
<path d="M128 4C196.472 4 252 59.5275 252 128C252 196.472 196.472 252 128 252C59.5275 252 4 196.472 4 128C4 59.5275 59.5275 4 128 4Z" fill="white" stroke="black" stroke-width="8"/>
<path d="M120.667 182.594C114.747 182.594 109.32 181.114 104.387 178.154C99.4537 175.194 95.5071 170.656 92.5471 164.538C89.6857 158.421 88.2551 150.873 88.2551 141.894C88.2551 133.508 89.9817 125.861 93.4351 118.954C96.8884 112.048 101.822 106.621 108.235 102.674C114.747 98.629 122.394 96.6064 131.175 96.6064C136.207 96.6064 140.795 97.149 144.939 98.2344V70.5584L129.843 68.7824V62.4184L156.483 59.7544H156.927L160.183 62.1224V173.418H168.767V180.226C165.61 180.917 162.847 181.46 160.479 181.854C158.21 182.249 155.792 182.446 153.227 182.446C150.662 182.446 148.836 182.002 147.751 181.114C146.666 180.226 146.123 178.352 146.123 175.49V170.754C143.36 174.109 139.71 176.921 135.171 179.19C130.731 181.46 125.896 182.594 120.667 182.594ZM126.587 172.086C130.435 172.086 134.036 171.248 137.391 169.57C140.746 167.794 143.262 165.772 144.939 163.502V109.334C144.15 108.15 142.275 107.114 139.315 106.226C136.454 105.24 133.395 104.746 130.139 104.746C122.443 104.746 116.276 107.706 111.639 113.626C107.1 119.448 104.831 128.476 104.831 140.71C104.831 151.366 106.854 159.26 110.899 164.39C114.944 169.521 120.174 172.086 126.587 172.086Z" fill="black"/>
</svg>
