<svg width="256" height="256" viewBox="0 0 256 256" fill="none" xmlns="http://www.w3.org/2000/svg">
<mask id="mask0_245_162" style="mask-type:alpha" maskUnits="userSpaceOnUse" x="0" y="0" width="256" height="256">
<path d="M128 0C198.682 0 256 57.3184 256 128C256 198.682 198.682 256 128 256C57.3184 256 0 198.682 0 128C0 57.3184 57.3184 0 128 0Z" fill="#111111"/>
</mask>
<g mask="url(#mask0_245_162)">
<path d="M106.88 254.72C46.08 243.84 0 191.36 0 128C0 57.6 57.6 0 128 0C198.4 0 256 57.6 256 128C256 191.36 209.92 243.84 149.12 254.72L142.08 248.96H113.92L106.88 254.72Z" fill="url(#paint0_linear_245_162)"/>
<path d="M149.764 97.5117V111.867H200.154V144.826H149.764V275.93H106.844V144.826H67V111.867H106.844V100.441C106.844 80.7148 110.945 67.043 119.148 59.4258C127.352 51.8086 142.586 48 164.852 48H200.154V80.959H166.609C160.164 80.959 155.77 82.1309 153.426 84.4746C151.18 86.8184 149.959 91.1641 149.764 97.5117Z" fill="white"/>
</g>
<defs>
<linearGradient id="paint0_linear_245_162" x1="128.006" y1="247.097" x2="128.006" y2="-0.0471538" gradientUnits="userSpaceOnUse">
<stop stop-color="#1200E0"/>
<stop offset="1" stop-color="#DF19FF"/>
</linearGradient>
</defs>
</svg>
