<svg width="256" height="256" viewBox="0 0 256 256" fill="none" xmlns="http://www.w3.org/2000/svg">
<mask id="mask0_249_89" style="mask-type:alpha" maskUnits="userSpaceOnUse" x="0" y="0" width="256" height="256">
<path d="M128 0C198.682 0 256 57.3184 256 128C256 198.682 198.682 256 128 256C57.3184 256 0 198.682 0 128C0 57.3184 57.3184 0 128 0Z" fill="#111111"/>
</mask>
<g mask="url(#mask0_249_89)">
<path d="M128 0C198.682 0 256 57.3184 256 128C256 198.682 198.682 256 128 256C57.3184 256 0 198.682 0 128C0 57.3184 57.3184 0 128 0Z" fill="#111111"/>
<mask id="mask1_249_89" style="mask-type:alpha" maskUnits="userSpaceOnUse" x="-22" y="70" width="407" height="181">
<path d="M134.031 71.0227L129.858 77.2244C129.568 77.6457 130.123 78.1571 130.524 77.8012L134.632 74.2258C134.742 74.1358 134.898 74.2054 134.898 74.3608V85.5369C134.898 85.6924 134.697 85.7578 134.607 85.6474L122.173 70.7568C121.773 70.27 121.196 70 120.555 70H120.109C118.956 70 118 70.9573 118 72.1313V87.8605C118 89.0387 118.956 89.9918 120.13 89.9918C120.861 89.9918 121.552 89.6155 121.948 88.9691L126.126 82.7797C126.416 82.3584 125.86 81.847 125.46 82.2029L121.352 85.7578C121.241 85.8478 121.086 85.7783 121.086 85.6228V74.4672C121.086 74.3117 121.286 74.2463 121.376 74.3567L133.806 89.2432C134.207 89.73 134.804 90 135.425 90H135.87C137.048 90 138 89.0428 138 87.8687V72.1354C138 70.9573 137.044 70.0041 135.87 70.0041C135.118 70.0041 134.428 70.3804 134.031 71.0227Z" fill="white"/>
<path d="M175.755 90C158.211 92.705 111.877 99.6957 106.091 109.976C101.837 117.534 168.964 124.455 136.056 133.282C95.3288 144.205 40.4889 150.089 -5.5207 167.129C-78.304 194.087 127.498 234.779 158.527 247.032L384 247.896C248.27 217.837 35.539 186.866 82.1019 171.005C128.84 155.086 137.259 153.072 180.235 137.155C211.539 125.561 133.051 114.536 124.053 108.856C110.199 100.113 166.078 93.014 179.658 90.1534L175.755 90Z" fill="white" stroke="black" stroke-width="0.8069"/>
<path d="M177.328 90.1969C171.445 91.0868 165.568 92.0329 159.703 93.0637C152.537 94.323 145.383 95.6929 138.275 97.3373C135.014 98.0919 131.761 98.9044 128.535 99.8409C128.535 99.8409 128.535 99.8409 128.535 99.8409C125.901 100.605 123.276 101.439 120.718 102.505C120.718 102.505 120.718 102.505 120.718 102.505C119.739 102.914 118.768 103.358 117.827 103.881C117.112 104.279 116.405 104.721 115.767 105.285C115.325 105.67 114.894 106.135 114.648 106.746C114.554 106.984 114.497 107.248 114.498 107.519C114.501 107.791 114.562 108.056 114.665 108.294C114.665 108.294 114.665 108.294 114.665 108.294C114.768 108.528 114.919 108.712 115.073 108.865C115.291 109.086 115.529 109.27 115.77 109.438C116.468 109.927 117.212 110.31 117.956 110.668C118.981 111.162 120.024 111.601 121.072 112.018C121.072 112.018 121.072 112.018 121.072 112.018C122.356 112.531 123.649 113.01 124.945 113.475C128.035 114.581 131.146 115.606 134.257 116.621C137.659 117.731 141.065 118.821 144.463 119.938C147.697 121 150.926 122.082 154.128 123.25C156.724 124.197 159.308 125.18 161.809 126.38C162.712 126.814 163.601 127.272 164.444 127.813C165.024 128.189 165.586 128.575 166.009 129.091C166.145 129.261 166.264 129.43 166.323 129.607C166.367 129.738 166.387 129.875 166.36 129.983C166.34 130.109 166.253 130.238 166.148 130.363C165.992 130.54 165.785 130.678 165.56 130.809C165.317 130.948 165.05 131.058 164.772 131.174C164.332 131.356 163.885 131.523 163.434 131.687C162.064 132.185 160.679 132.643 159.291 133.094C154.918 134.515 150.52 135.843 146.119 137.162C133.372 140.981 120.589 144.649 107.804 148.304C107.804 148.304 107.804 148.304 107.804 148.304C94.5015 152.107 81.1902 155.873 67.882 159.649C62.8199 161.085 57.7572 162.522 52.6972 163.972C49.652 164.845 46.6008 165.71 43.5592 166.638C41.6437 167.221 39.733 167.894 37.8791 168.772C37.8791 168.772 37.8791 168.772 37.8791 168.772C36.5634 169.392 35.2487 170.128 34.0628 171.139C33.6196 171.517 33.1929 171.946 32.8121 172.443C32.8121 172.443 32.8121 172.443 32.8121 172.443C32.4932 172.858 32.2109 173.331 31.9989 173.863C31.9989 173.863 31.9989 173.863 31.9989 173.863C31.8101 174.339 31.6915 174.857 31.6594 175.392C31.6301 175.928 31.6872 176.456 31.8135 176.954C32.1244 178.14 32.7324 179.135 33.4059 179.961C34.3211 181.102 35.3762 182.048 36.454 182.895C37.8617 184.004 39.3405 184.97 40.8384 185.864C42.682 186.964 44.5676 187.959 46.4686 188.895C46.4686 188.895 46.4686 188.895 46.4686 188.895C51.2495 191.249 56.1472 193.258 61.0693 195.134C61.0693 195.134 61.0694 195.134 61.0693 195.134C67.1406 197.449 73.2711 199.546 79.4232 201.534C79.4232 201.534 79.4232 201.534 79.4232 201.534C94.1591 206.297 109.036 210.455 123.949 214.391C140.289 218.704 156.687 222.717 173.11 226.575C188.701 230.236 204.317 233.75 219.948 237.179C232.458 239.923 244.976 242.605 257.492 245.293C261.863 246.232 266.233 247.17 270.596 248.131C272.182 248.481 273.766 248.833 275.346 249.195C276.484 249.456 277.616 249.719 278.739 250L279.297 247.085C278.146 246.804 276.998 246.544 275.853 246.289C274.262 245.934 272.671 245.589 271.08 245.248C266.704 244.31 262.327 243.396 257.952 242.482C245.424 239.866 232.897 237.256 220.382 234.585C204.744 231.247 189.122 227.825 173.525 224.255C157.097 220.509 140.698 216.595 124.356 212.38C109.444 208.532 94.5756 204.467 79.8569 199.801C79.8569 199.801 79.8569 199.801 79.8569 199.801C73.7117 197.853 67.5953 195.799 61.5437 193.53C61.5437 193.53 61.5437 193.53 61.5437 193.53C56.6352 191.689 51.7679 189.725 47.0316 187.425C47.0316 187.425 47.0316 187.425 47.0316 187.425C45.149 186.51 43.2908 185.543 41.4831 184.476C40.0131 183.609 38.5785 182.684 37.2309 181.631C36.1973 180.821 35.2156 179.958 34.402 178.944C33.8148 178.198 33.3022 177.409 33.0953 176.55C33.0076 176.203 32.9649 175.846 32.9847 175.504C33.0015 175.162 33.0808 174.816 33.2066 174.49C33.3481 174.12 33.5599 173.769 33.8082 173.436C33.8082 173.436 33.8082 173.436 33.8082 173.436C34.1079 173.037 34.4658 172.676 34.8528 172.339C35.8969 171.43 37.1154 170.747 38.378 170.136C38.378 170.136 38.378 170.136 38.378 170.136C40.1519 169.281 42.0066 168.618 43.8888 168.032C46.9117 167.091 49.9535 166.211 52.9969 165.32C52.9968 165.32 52.9969 165.32 52.9969 165.32C58.0485 163.841 63.1038 162.376 68.1597 160.911C81.4519 157.059 94.7472 153.216 108.034 149.337C108.034 149.337 108.034 149.337 108.034 149.337C120.805 145.608 133.574 141.866 146.31 137.973C150.707 136.628 155.103 135.273 159.478 133.825C160.866 133.365 162.255 132.898 163.634 132.387C164.087 132.22 164.541 132.047 164.993 131.857C165.271 131.741 165.56 131.619 165.844 131.455C166.099 131.312 166.358 131.13 166.585 130.879C166.753 130.699 166.895 130.456 166.963 130.158C167.016 129.876 166.984 129.598 166.894 129.358C166.785 129.067 166.625 128.828 166.455 128.63C165.95 128.033 165.339 127.609 164.742 127.235C164.742 127.235 164.742 127.235 164.742 127.235C163.866 126.68 162.954 126.216 162.039 125.783C159.506 124.585 156.903 123.611 154.298 122.678C151.082 121.525 147.844 120.461 144.604 119.416C144.604 119.416 144.604 119.416 144.604 119.416C141.199 118.318 137.788 117.247 134.382 116.158C131.267 115.161 128.156 114.155 125.067 113.068C123.771 112.612 122.479 112.142 121.199 111.638C120.153 111.228 119.115 110.799 118.098 110.315C117.358 109.962 116.627 109.593 115.953 109.124C115.721 108.963 115.498 108.793 115.302 108.596C115.164 108.453 115.038 108.309 114.969 108.144C114.885 107.95 114.834 107.74 114.833 107.531C114.83 107.323 114.876 107.111 114.952 106.912C115.151 106.387 115.548 105.966 115.968 105.586C116.577 105.041 117.264 104.607 117.968 104.209C118.893 103.688 119.853 103.243 120.824 102.831C120.824 102.831 120.824 102.831 120.824 102.831C123.363 101.756 125.976 100.91 128.602 100.131C131.82 99.1779 135.065 98.3477 138.321 97.5749C145.417 95.8908 152.563 94.4805 159.723 93.1802C165.583 92.1161 171.455 91.1364 177.333 90.2128L177.328 90.1969Z" fill="#111111"/>
<path d="M128.535 99.8409C131.761 98.9044 135.014 98.0919 138.275 97.3373C145.383 95.6929 152.537 94.323 159.703 93.0637C165.568 92.0329 171.445 91.0868 177.328 90.1969L177.333 90.2128C171.455 91.1364 165.583 92.1161 159.723 93.1802C152.563 94.4805 145.417 95.8908 138.321 97.5749C135.065 98.3477 131.82 99.1779 128.602 100.131C125.976 100.91 123.363 101.756 120.824 102.831M128.535 99.8409C128.535 99.8409 128.535 99.8409 128.535 99.8409ZM128.535 99.8409C125.901 100.605 123.276 101.439 120.718 102.505M120.718 102.505C120.718 102.505 120.718 102.505 120.718 102.505ZM120.718 102.505C119.739 102.914 118.768 103.358 117.827 103.881C117.112 104.279 116.405 104.721 115.767 105.285C115.325 105.67 114.894 106.135 114.648 106.746C114.554 106.984 114.497 107.248 114.498 107.519C114.501 107.791 114.562 108.056 114.665 108.294M114.665 108.294C114.665 108.294 114.665 108.294 114.665 108.294ZM114.665 108.294C114.768 108.528 114.919 108.712 115.073 108.865C115.291 109.086 115.529 109.27 115.77 109.438C116.468 109.927 117.212 110.31 117.956 110.668C118.981 111.162 120.024 111.601 121.072 112.018M121.072 112.018C121.072 112.018 121.072 112.018 121.072 112.018ZM121.072 112.018C122.356 112.531 123.649 113.01 124.945 113.475C128.035 114.581 131.146 115.606 134.257 116.621C137.659 117.731 141.065 118.821 144.463 119.938C147.697 121 150.926 122.082 154.128 123.25C156.724 124.197 159.308 125.18 161.809 126.38C162.712 126.814 163.601 127.272 164.444 127.813C165.024 128.189 165.586 128.575 166.009 129.091C166.145 129.261 166.264 129.43 166.323 129.607C166.367 129.738 166.387 129.875 166.36 129.983C166.34 130.109 166.253 130.238 166.148 130.363C165.992 130.54 165.785 130.678 165.56 130.809C165.317 130.948 165.05 131.058 164.772 131.174C164.332 131.356 163.885 131.523 163.434 131.687C162.064 132.185 160.679 132.643 159.291 133.094C154.918 134.515 150.52 135.843 146.119 137.162C133.372 140.981 120.589 144.649 107.804 148.304M107.804 148.304C107.804 148.304 107.804 148.304 107.804 148.304ZM107.804 148.304C94.5015 152.107 81.1902 155.873 67.882 159.649C62.8199 161.085 57.7572 162.522 52.6972 163.972C49.652 164.845 46.6008 165.71 43.5592 166.638C41.6437 167.221 39.733 167.894 37.8791 168.772M37.8791 168.772C37.8791 168.772 37.8791 168.772 37.8791 168.772ZM37.8791 168.772C36.5634 169.392 35.2487 170.128 34.0628 171.139C33.6196 171.517 33.1929 171.946 32.8121 172.443M32.8121 172.443C32.8121 172.443 32.8121 172.443 32.8121 172.443ZM32.8121 172.443C32.4932 172.858 32.2109 173.331 31.9989 173.863M31.9989 173.863C31.9989 173.863 31.9989 173.863 31.9989 173.863ZM31.9989 173.863C31.8101 174.339 31.6915 174.857 31.6594 175.392C31.6301 175.928 31.6872 176.456 31.8135 176.954C32.1244 178.14 32.7324 179.135 33.4059 179.961C34.3211 181.102 35.3762 182.048 36.454 182.895C37.8617 184.004 39.3405 184.97 40.8384 185.864C42.682 186.964 44.5676 187.959 46.4686 188.895M46.4686 188.895C46.4686 188.895 46.4686 188.895 46.4686 188.895ZM46.4686 188.895C51.2495 191.249 56.1472 193.258 61.0693 195.134M61.0693 195.134C61.0694 195.134 61.0693 195.134 61.0693 195.134ZM61.0693 195.134C67.1406 197.449 73.2711 199.546 79.4232 201.534M79.4232 201.534C79.4232 201.534 79.4232 201.534 79.4232 201.534ZM79.4232 201.534C94.1591 206.297 109.036 210.455 123.949 214.391C140.289 218.704 156.687 222.717 173.11 226.575C188.701 230.236 204.317 233.75 219.948 237.179C232.458 239.923 244.976 242.605 257.492 245.293C261.863 246.232 266.233 247.17 270.596 248.131C272.182 248.481 273.766 248.833 275.346 249.195C276.484 249.456 277.616 249.719 278.739 250L279.297 247.085C278.146 246.804 276.998 246.544 275.853 246.289C274.262 245.934 272.671 245.589 271.08 245.248C266.704 244.31 262.327 243.396 257.952 242.482C245.424 239.866 232.897 237.256 220.382 234.585C204.744 231.247 189.122 227.825 173.525 224.255C157.097 220.509 140.698 216.595 124.356 212.38C109.444 208.532 94.5756 204.467 79.8569 199.801M79.8569 199.801C79.8569 199.801 79.8569 199.801 79.8569 199.801ZM79.8569 199.801C73.7117 197.853 67.5953 195.799 61.5437 193.53M61.5437 193.53C61.5437 193.53 61.5437 193.53 61.5437 193.53ZM61.5437 193.53C56.6352 191.689 51.7679 189.725 47.0316 187.425M47.0316 187.425C47.0316 187.425 47.0316 187.425 47.0316 187.425ZM47.0316 187.425C45.149 186.51 43.2908 185.543 41.4831 184.476C40.0131 183.609 38.5785 182.684 37.2309 181.631C36.1973 180.821 35.2156 179.958 34.402 178.944C33.8148 178.198 33.3022 177.409 33.0953 176.55C33.0076 176.203 32.9649 175.846 32.9847 175.504C33.0015 175.162 33.0808 174.816 33.2066 174.49C33.3481 174.12 33.5599 173.769 33.8082 173.436M33.8082 173.436C33.8082 173.436 33.8082 173.436 33.8082 173.436ZM33.8082 173.436C34.1079 173.037 34.4658 172.676 34.8528 172.339C35.8969 171.43 37.1154 170.747 38.378 170.136M38.378 170.136C38.378 170.136 38.378 170.136 38.378 170.136ZM38.378 170.136C40.1519 169.281 42.0066 168.618 43.8888 168.032C46.9117 167.091 49.9535 166.211 52.9969 165.32M52.9969 165.32C52.9969 165.32 52.9968 165.32 52.9969 165.32ZM52.9969 165.32C58.0485 163.841 63.1038 162.376 68.1597 160.911C81.4519 157.059 94.7472 153.216 108.034 149.337M108.034 149.337C108.034 149.337 108.034 149.337 108.034 149.337ZM108.034 149.337C120.805 145.608 133.574 141.866 146.31 137.973C150.707 136.628 155.103 135.273 159.478 133.825C160.866 133.365 162.255 132.898 163.634 132.387C164.087 132.22 164.541 132.047 164.993 131.857C165.271 131.741 165.56 131.619 165.844 131.455C166.099 131.312 166.358 131.13 166.585 130.879C166.753 130.699 166.895 130.456 166.963 130.158C167.016 129.876 166.984 129.598 166.894 129.358C166.785 129.067 166.625 128.828 166.455 128.63C165.95 128.033 165.339 127.609 164.742 127.235M164.742 127.235C164.742 127.235 164.742 127.235 164.742 127.235ZM164.742 127.235C163.866 126.68 162.954 126.216 162.039 125.783C159.506 124.585 156.903 123.611 154.298 122.678C151.082 121.525 147.844 120.461 144.604 119.416M144.604 119.416C144.604 119.416 144.604 119.416 144.604 119.416ZM144.604 119.416C141.199 118.318 137.788 117.247 134.382 116.158C131.267 115.161 128.156 114.155 125.067 113.068C123.771 112.612 122.479 112.142 121.199 111.638C120.153 111.228 119.115 110.799 118.098 110.315C117.358 109.962 116.627 109.593 115.953 109.124C115.721 108.963 115.498 108.793 115.302 108.596C115.164 108.453 115.038 108.309 114.969 108.144C114.885 107.95 114.834 107.74 114.833 107.531C114.83 107.323 114.876 107.111 114.952 106.912C115.151 106.387 115.548 105.966 115.968 105.586C116.577 105.041 117.264 104.607 117.968 104.209C118.893 103.688 119.853 103.243 120.824 102.831M120.824 102.831C120.824 102.831 120.824 102.831 120.824 102.831Z" stroke="#111111" stroke-width="0.8069"/>
</mask>
<g mask="url(#mask1_249_89)">
<rect width="256" height="256" fill="url(#paint0_linear_249_89)"/>
</g>
<mask id="mask2_249_89" style="mask-type:alpha" maskUnits="userSpaceOnUse" x="24" y="24" width="215" height="225">
<circle cx="75" cy="57" r="1" fill="#D9D9D9"/>
<circle cx="124" cy="57" r="1" fill="#D9D9D9"/>
<circle cx="56" cy="105" r="1" fill="#D9D9D9"/>
<circle cx="223" cy="119" r="1" fill="#D9D9D9"/>
<circle cx="196" cy="51" r="1" fill="#D9D9D9"/>
<circle cx="90" cy="25" r="1" fill="#D9D9D9"/>
<circle cx="30" cy="89" r="1" fill="#D9D9D9"/>
<circle cx="205" cy="165" r="1" fill="#D9D9D9"/>
<circle cx="153" cy="177" r="1" fill="#D9D9D9"/>
<circle cx="109" cy="239" r="1" fill="#D9D9D9"/>
<circle cx="91" cy="134" r="1" fill="#D9D9D9"/>
<circle cx="160" cy="52" r="1" fill="#D9D9D9"/>
<circle cx="103" cy="95" r="1" fill="#D9D9D9"/>
<circle cx="66" cy="136" r="1" fill="#D9D9D9"/>
<circle cx="75" cy="235" r="1" fill="#D9D9D9"/>
<circle cx="205" cy="197" r="1" fill="#D9D9D9"/>
<circle cx="238" cy="169" r="1" fill="#D9D9D9"/>
<circle cx="201" cy="95" r="1" fill="#D9D9D9"/>
<circle cx="139" cy="248" r="1" fill="#D9D9D9"/>
<circle cx="25" cy="148" r="1" fill="#D9D9D9"/>
</mask>
<g mask="url(#mask2_249_89)">
<rect width="256" height="256" fill="url(#paint1_linear_249_89)"/>
</g>
</g>
<defs>
<linearGradient id="paint0_linear_249_89" x1="128" y1="38.5" x2="128" y2="256" gradientUnits="userSpaceOnUse">
<stop stop-color="#FF2222"/>
<stop offset="0.359375" stop-color="#790202"/>
<stop offset="1" stop-color="white"/>
</linearGradient>
<linearGradient id="paint1_linear_249_89" x1="128" y1="38.5" x2="128" y2="256" gradientUnits="userSpaceOnUse">
<stop stop-color="#620000"/>
<stop offset="0.411458" stop-color="#54551D"/>
<stop offset="0.84375" stop-color="#52629A"/>
</linearGradient>
</defs>
</svg>
