<svg width="256" height="256" viewBox="0 0 256 256" fill="none" xmlns="http://www.w3.org/2000/svg">
<path d="M0 128C0 57.3076 57.3076 0 128 0V0C198.692 0 256 57.3076 256 128V128C256 198.692 198.692 256 128 256V256C57.3076 256 0 198.692 0 128V128Z" fill="url(#paint0_linear_245_283)"/>
<path d="M189.353 171.751C189.486 171.56 189.537 171.325 189.497 171.096C189.456 170.867 189.326 170.664 189.136 170.53L182.267 165.796C181.87 165.524 181.308 165.561 181.019 165.963C169.456 182.22 150.437 192.857 128.992 192.853C93.7871 192.825 65.1732 164.205 65.1732 129C65.1732 93.7945 93.7986 65.1472 129.013 65.175C164.227 65.2027 192.857 93.7968 192.848 129.009C192.854 136.454 191.548 143.842 188.99 150.835L188.997 150.835C188.916 151.052 188.924 151.292 189.019 151.504C189.114 151.715 189.289 151.88 189.506 151.963L197.336 154.969C197.549 155.052 197.786 155.048 197.996 154.959C198.206 154.87 198.374 154.703 198.463 154.493C201.386 146.524 203 137.949 203 129.009C203.009 88.2075 169.814 55.0046 129.008 55C88.2021 54.9954 55.0046 88.1959 55 128.995C54.9954 169.795 88.1929 203 128.992 203C153.885 203 175.933 190.644 189.351 171.751L189.353 171.751ZM116.421 159.629L112.454 167.024C112.223 167.487 112.362 168.042 112.824 168.227C117.841 170.313 123.214 171.407 128.647 171.451C152.067 171.645 171.28 152.749 171.477 129.328L171.477 128.97C171.477 105.745 152.583 86.6974 129.355 86.5009C105.933 86.3043 86.7197 105.2 86.5208 128.621L86.5185 128.979C86.5185 140.07 90.8339 150.203 97.8688 157.793C98.1926 158.163 98.7661 158.239 99.1361 157.895L104.825 151.582C105.154 151.221 105.096 150.661 104.779 150.321C99.5553 144.438 96.6691 136.844 96.6663 128.977L96.6663 128.699C96.8143 110.875 111.437 96.4955 129.265 96.6435C146.94 96.7915 161.322 111.289 161.322 128.963L161.322 129.24C161.149 147.084 146.57 161.421 128.726 161.299C124.935 161.267 121.179 160.562 117.635 159.217C117.418 159.12 117.172 159.108 116.946 159.183C116.72 159.258 116.531 159.416 116.416 159.624L116.421 159.629ZM100.843 79.0962L104.76 86.5124C104.863 86.7237 104.879 86.9665 104.805 87.1893C104.731 87.4121 104.573 87.5974 104.365 87.7057C90.295 96.1371 80.8688 111.524 80.9151 129.104C80.9845 155.619 102.619 177.135 129.138 177.061C155.656 176.987 177.166 155.363 177.094 128.845C177.022 102.328 155.39 80.8144 128.876 80.8884C125.807 80.8977 122.808 81.2006 119.903 81.7602C119.413 81.8689 118.96 81.5452 118.84 81.0804L116.821 72.9774C116.705 72.5195 116.964 72.0362 117.445 71.9136C121.2 71.1495 125.021 70.7583 128.853 70.7458C160.961 70.6556 187.156 96.7059 187.244 128.815C187.332 160.924 161.274 187.127 129.163 187.215C97.0525 187.303 70.8529 161.245 70.7651 129.134C70.7072 107.674 82.335 88.8642 99.638 78.717C100.061 78.4719 100.614 78.6638 100.841 79.0986" fill="#E84142"/>
<defs>
<linearGradient id="paint0_linear_245_283" x1="128" y1="0" x2="128" y2="256" gradientUnits="userSpaceOnUse">
<stop stop-color="#111010"/>
<stop offset="1" stop-color="#371A1A"/>
</linearGradient>
</defs>
</svg>
