<svg width="256" height="256" viewBox="0 0 256 256" fill="none" xmlns="http://www.w3.org/2000/svg">
<path d="M128 256C57.3074 256 0 198.693 0 128C0 57.3074 57.3074 0 128 0C198.693 0 256 57.3074 256 128C256 198.693 198.693 256 128 256Z" fill="#F7F6EE"/>
<path d="M177.403 139.044C173.23 117.821 136.853 105.277 128.405 121.175C119.957 105.277 83.6048 117.821 79.432 139.044C73.9536 161.213 45.0512 167.306 29 155.76C29 180.797 55.9824 181.13 72.6992 182.743C112.251 181.002 124.744 162.775 128.43 154.429C132.117 162.775 144.61 181.002 184.162 182.743C200.853 181.13 227.861 180.797 227.861 155.76C211.758 167.306 182.856 161.213 177.403 139.044Z" fill="#39393A"/>
<path d="M128 256C57.4171 256 0 198.583 0 128C0 57.4171 57.4171 0 128 0C198.583 0 256 57.4171 256 128C256 198.583 198.583 256 128 256ZM128 7.78449C61.7012 7.78449 7.78449 61.7273 7.78449 128C7.78449 194.273 61.7012 248.216 128 248.216C194.299 248.216 248.216 194.299 248.216 128C248.216 61.7273 194.299 7.78449 128 7.78449Z" fill="#39393A"/>
<path d="M99 84.345C99 76.5622 102.092 69.0982 107.595 63.5949C113.098 58.0917 120.562 55 128.345 55C136.128 55 143.592 58.0917 149.095 63.5949C154.598 69.0982 157.69 76.5622 157.69 84.345L99 84.345Z" fill="#C55F46"/>
<path d="M99 84.3449C99 92.1277 102.092 99.5917 107.595 105.095C113.098 110.598 120.562 113.69 128.345 113.69C136.128 113.69 143.592 110.598 149.095 105.095C154.598 99.5917 157.69 92.1277 157.69 84.3449C157.69 80.4536 156.144 76.7215 153.393 73.9699C150.641 71.2183 146.909 69.6724 143.017 69.6724C139.126 69.6724 135.394 71.2183 132.642 73.9699C129.891 76.7215 128.345 80.4536 128.345 84.3449L99 84.3449Z" fill="#131C3E"/>
<path d="M128.345 84.345C128.345 76.2416 121.776 69.6725 113.672 69.6725C105.569 69.6725 99 76.2416 99 84.345C99 92.4484 105.569 99.0175 113.673 99.0175C121.776 99.0175 128.345 92.4484 128.345 84.345Z" fill="#C55F46"/>
</svg>
