<svg width="256" height="256" viewBox="0 0 256 256" fill="none" xmlns="http://www.w3.org/2000/svg">
<g clip-path="url(#clip0_245_293)">
<path d="M127.974 0C198.642 0 255.949 57.3069 255.949 127.974C255.949 198.642 198.642 255.949 127.974 255.949C57.3069 255.949 0 198.642 0 127.974C0 57.3069 57.3069 0 127.974 0Z" fill="#CE206F"/>
<path d="M66.6412 113.548C58.8977 112.257 51.2357 111.105 44.1741 107.492C40.2434 105.48 36.4138 103.019 33.1259 100.052C33.0842 100.013 33.0417 99.9752 33 99.937C33 99.937 35.6822 101.279 39.0339 102.622C41.913 103.776 45.2869 104.06 48.338 104.416C54.8588 105.177 61.7945 105.777 67.5288 101.951C67.1528 102.202 62.6351 99.147 62.2795 98.9437C55.507 95.0744 48.792 90.8952 45.4031 83.493C45.4031 83.493 49.426 86.1782 53.4489 87.8559C57.4719 89.5335 65.5168 91.5477 65.5168 91.5477C65.5168 91.5477 59.4829 84.5005 57.8026 81.1442C56.1223 77.7879 52.7742 69.0622 53.4445 70.4035C54.1148 71.7447 55.7916 72.4167 58.4729 75.1019C61.1543 77.7871 68.865 81.1424 68.5298 80.4714C66.4966 76.3987 63.7904 72.5241 62.5003 68.1275C61.7484 65.5639 61.2385 62.2689 60.4831 60C60.8182 61.0066 63.4978 63.3563 66.1819 67.0472C68.8659 70.7381 73.5574 74.4308 73.5574 74.4308V70.0679C73.5574 70.0679 73.8926 66.0406 76.91 64.6984C79.9274 63.3563 83.6143 68.0547 83.6143 68.0547C83.6143 68.0547 79.2562 68.3902 78.921 70.0679C78.5858 71.7456 82.6088 75.4374 82.6088 75.4374L81.2681 78.4555C81.2681 78.4555 81.2681 98.2558 96.3534 103.961C111.439 109.666 111.104 112.351 112.445 114.364C114.588 117.584 111.716 122.149 113.361 125.404C113.598 125.874 113.893 126.326 114.316 126.642C115.676 127.668 117.458 127.365 118.819 126.455C119.567 125.765 120.068 124.761 120.573 123.628C122.717 118.814 126.755 110.047 126.755 110.047C126.755 110.047 121.385 107.566 118.906 107.152C116.428 106.738 116.428 110.873 116.428 110.873L115.187 107.978C113.945 105.084 115.187 103.43 115.6 102.19C116.013 100.95 118.905 99.2952 128.405 95.1605C131.49 93.8174 134.989 92.9777 138.345 93.6656C139.628 93.9319 141.508 94.4841 142.336 95.5368C140.351 95.5297 138.482 95.0291 136.444 95.283C134.35 95.5427 132.326 96.2046 130.483 97.2323H137.917C143.287 97.2323 147.004 104.262 147.004 104.262L143.695 101.365C140.907 98.9233 137.251 99.7142 134.194 99.7115C135.948 99.7115 137.987 102.585 138.756 103.916C140.632 107.157 140.503 110.822 139.616 114.353C139.538 114.408 139.566 114.274 139.566 114.183C139.566 112.529 137.5 110.875 137.5 110.875L138.327 115.423C139.153 119.972 138.327 125.347 138.327 124.106C138.327 122.865 135.435 120.385 135.435 120.385V123.28C135.435 123.627 135.516 124.104 135.656 124.666C135.687 124.791 135.726 124.927 135.771 125.072C136.999 126.897 139.762 128.09 141.679 126.645C142.099 126.329 142.397 125.876 142.634 125.407C144.278 122.152 141.406 117.586 143.55 114.367C144.89 112.353 144.555 109.668 159.641 103.963C174.727 98.2584 174.729 78.4581 174.729 78.4581L173.389 75.4401C173.389 75.4401 177.411 71.7483 177.076 70.0706C176.741 68.3929 172.383 68.0573 172.383 68.0573C172.383 68.0573 176.071 63.3589 179.087 64.7011C182.104 66.0432 182.44 70.0706 182.44 70.0706V74.4335C182.44 74.4335 187.13 70.7408 189.812 67.0472C192.494 63.3536 195.176 61.0066 195.511 60C194.755 62.2689 194.245 65.5639 193.493 68.1275C192.204 72.5241 189.498 76.3987 187.464 80.4714C187.129 81.1424 194.839 77.7862 197.521 75.1019C200.202 72.4176 201.879 71.7456 202.549 70.4035C203.22 69.0613 199.867 77.7871 198.191 81.1442C196.515 84.5014 190.477 91.5477 190.477 91.5477C190.477 91.5477 198.528 89.5327 202.551 87.855C206.574 86.1773 210.597 83.4921 210.597 83.4921C207.208 90.8943 200.489 95.0735 193.72 98.9428C193.366 99.1461 188.844 102.201 188.472 101.95C194.205 105.776 201.142 105.177 207.663 104.415C210.714 104.06 214.088 103.774 216.967 102.621C220.318 101.276 223 99.9361 223 99.9361C222.958 99.9752 222.917 100.013 222.874 100.051C219.586 103.018 215.757 105.48 211.826 107.49C204.764 111.106 197.102 112.257 189.36 113.548C189.094 113.592 184.609 114.634 184.449 114.367C187.166 118.901 208.95 125.72 215.163 125.963C210.078 126.618 205.013 127.318 199.895 127.695C194.007 128.129 187.541 128.662 181.764 127.12C171.707 124.435 175.394 125.442 175.394 125.442C175.902 125.581 177.212 128.525 177.54 128.993C179.233 131.416 181.217 133.658 183.587 135.429C189.058 139.519 194.84 143.363 201.207 145.912C201.411 145.994 201.577 146.064 201.67 146.251C200.71 146.889 198.756 146.535 197.666 146.486C188.125 146.057 180.396 142.427 172.287 137.768C171.135 137.103 169.646 136.466 168.689 135.508L167.684 134.502C169.268 137.476 170.432 140.751 171.31 143.995C172.978 150.134 172.702 156.361 172.468 162.663C172.411 164.18 172.41 165.704 172.39 167.223C172.385 167.642 172.311 168.055 172.312 168.475C171.098 166.797 170.318 164.469 169.386 162.58C168.411 160.613 167.427 158.653 166.404 156.71C164.917 153.887 163.469 150.656 161.315 148.261C158.301 144.904 156.287 142.556 156.287 142.556C156.287 142.556 155.952 162.356 153.941 168.732L151.93 175.108C151.767 169.229 151.771 162.952 149.95 157.308C148.917 154.112 147.046 151.076 145.225 148.26C144.275 150.674 143.403 153.13 142.645 155.612C141.304 160.004 141.736 163.65 142.809 168.07C143.43 170.636 144.038 173.401 145.225 175.779C146.566 178.464 140.532 172.087 139.527 170.41C138.521 168.732 134.163 160.342 134.498 156.651C134.833 152.96 132.151 156.315 131.483 159.001C130.816 161.686 129.472 166.384 133.159 173.431C136.846 180.479 149.248 193.904 149.248 193.904L140.197 187.864L145.897 204.308L135.505 192.227L140.533 211.356C140.533 211.356 132.567 198.25 132.152 196.59C131.863 195.431 128.826 216.275 128 222C127.175 216.275 124.138 195.431 123.849 196.59C123.434 198.25 115.468 211.356 115.468 211.356L120.496 192.227L110.104 204.308L115.803 187.864L106.752 193.904C106.752 193.904 119.155 180.48 122.843 173.433C126.53 166.386 125.189 161.688 124.518 159.002C123.848 156.317 121.166 152.962 121.504 156.653C121.841 160.344 117.481 168.734 116.475 170.411C115.47 172.089 109.436 178.466 110.776 175.781C111.964 173.403 112.569 170.638 113.193 168.072C114.265 163.653 114.7 160.007 113.357 155.614C112.599 153.129 111.727 150.676 110.776 148.262C108.956 151.078 107.084 154.11 106.052 157.31C104.231 162.953 104.235 169.231 104.072 175.11L102.061 168.734C100.05 162.358 99.7149 142.557 99.7149 142.557C99.7149 142.557 97.7039 144.906 94.6864 148.262C92.5327 150.659 91.0847 153.888 89.5977 156.712C88.5753 158.653 87.5876 160.618 86.6157 162.581C85.6829 164.47 84.9026 166.799 83.6896 168.477C83.6896 168.057 83.6169 167.644 83.6116 167.225C83.5921 165.706 83.5894 164.182 83.5336 162.665C83.2995 156.362 83.0237 150.135 84.6916 143.996C85.573 140.753 86.731 137.478 88.3182 134.504L87.3127 135.51C86.3559 136.468 84.8716 137.108 83.7145 137.769C75.6065 142.429 67.8772 146.059 58.3355 146.488C57.2466 146.537 55.2915 146.891 54.3321 146.253C54.4207 146.065 54.591 145.995 54.7949 145.914C61.1614 143.364 66.9426 139.522 72.4144 135.431C74.7846 133.656 76.769 131.418 78.4617 128.995C78.7898 128.525 80.0994 125.581 80.6075 125.444C80.6075 125.444 84.2953 124.437 74.2375 127.122C68.4607 128.664 61.9949 128.131 56.1063 127.697C50.9892 127.32 45.9236 126.62 40.8393 125.965C47.0541 125.722 68.8384 118.903 71.5561 114.369C71.393 114.634 66.9072 113.592 66.6412 113.548V113.548Z" fill="white"/>
</g>
<defs>
<clipPath id="clip0_245_293">
<rect width="256" height="255.974" fill="white"/>
</clipPath>
</defs>
</svg>
