<svg width="256" height="256" viewBox="0 0 256 256" fill="none" xmlns="http://www.w3.org/2000/svg">
<path d="M128 4C196.472 4 252 59.5275 252 128C252 196.472 196.472 252 128 252C59.5275 252 4 196.472 4 128C4 59.5275 59.5275 4 128 4Z" fill="white" stroke="black" stroke-width="8"/>
<path d="M128 32C181.011 32 224 74.9888 224 128C224 181.011 181.011 224 128 224C74.9888 224 32 181.011 32 128C32 74.9888 74.9888 32 128 32Z" fill="#BC002D"/>
<path d="M77 91H87.656V105.208L101.864 91H119.476L131.02 102.544L142.564 91H165.8L179.416 104.616V164.704H168.464V108.02L161.064 100.768H144.784L134.424 111.128V164.704H123.768V108.02L116.368 100.768H103.936L87.952 116.752V164.704H77V91Z" fill="white"/>
</svg>
