<svg width="256" height="256" viewBox="0 0 256 256" fill="none" xmlns="http://www.w3.org/2000/svg">
<path d="M128 0C198.682 0 256 57.3184 256 128C256 198.682 198.682 256 128 256C57.3184 256 0 198.682 0 128C0 57.3184 57.3184 0 128 0Z" fill="#111111"/>
<path d="M165.727 74.8981L139.595 113.704C137.777 116.34 141.258 119.54 143.766 117.313L169.489 94.9409C170.18 94.3778 171.153 94.813 171.153 95.7857V165.718C171.153 166.691 169.899 167.1 169.336 166.409L91.4761 73.2343C88.9678 70.1882 85.3589 68.4988 81.3405 68.4988H78.5507C71.3329 68.4988 65.3438 74.4886 65.3438 81.835V180.257C65.3438 187.629 71.3329 193.593 78.6787 193.593C83.2602 193.593 87.5857 191.239 90.0684 187.194L116.226 148.465C118.044 145.829 114.563 142.629 112.054 144.856L86.3315 167.1C85.6405 167.663 84.6679 167.228 84.6679 166.255V96.4512C84.6679 95.4785 85.922 95.0689 86.4851 95.7601L164.319 188.909C166.827 191.955 170.564 193.645 174.455 193.645H177.245C184.616 193.645 190.58 187.655 190.58 180.308V81.8606C190.58 74.4886 184.59 68.5244 177.245 68.5244C172.535 68.5244 168.21 70.8793 165.727 74.8981Z" fill="white"/>
</svg>
