<svg width="256" height="256" viewBox="0 0 256 256" fill="none" xmlns="http://www.w3.org/2000/svg">
<path d="M128 256C57.3074 256 0 198.693 0 128C0 57.3074 57.3074 0 128 0C198.693 0 256 57.3074 256 128C256 198.693 198.693 256 128 256Z" fill="#2E2E2E"/>
<path d="M95.8903 198.729V163.913H130.706V198.729H95.8903Z" fill="#2E2E2E"/>
<path d="M128 256C57.3074 256 0 198.693 0 128C0 57.3074 57.3074 0 128 0C198.693 0 256 57.3074 256 128C256 198.693 198.693 256 128 256Z" fill="#2E2E2E"/>
<path d="M65.1243 112.688C65.2235 108.619 65.5212 98.6942 65.7197 92.938C66.0175 85.4947 67.5061 81.0287 70.5827 78.1506C74.8503 74.3793 79.7132 73.4861 91.6226 72.8906C119.014 71.4019 146.902 71.6004 181.836 74.0816C185.508 74.3793 186.798 74.9748 187.592 75.471C189.18 76.5627 189.279 77.7536 189.776 83.9068C189.974 87.4796 190.47 96.9078 190.768 102.168C178.759 101.572 158.315 100.481 140.451 100.282C122.587 100.084 106.609 100.381 104.723 100.679C100.852 101.175 99.066 102.962 98.5697 103.756L191.165 120.925V134.422L65.1243 112.688ZM65.1243 112.688C65.2235 108.619 65.5212 98.6942 65.7197 92.938C66.0175 85.4947 67.5061 81.0287 70.5827 78.1506C74.8503 74.3793 79.7132 73.4861 91.6226 72.8906C119.014 71.4019 146.902 71.6004 181.836 74.0816C185.508 74.3793 186.798 74.9748 187.592 75.471C189.18 76.5627 189.279 77.7536 189.776 83.9068C189.974 87.4796 190.47 96.9078 190.768 102.168C178.759 101.572 158.315 100.481 140.451 100.282C122.587 100.084 106.609 100.381 104.723 100.679C100.852 101.175 99.066 102.962 98.5697 103.756L191.165 120.925V134.422L65.1243 112.688Z" fill="#02A6C2"/>
<path d="M190.768 142.66L65.0249 119.238V134.422L156.727 150.202C154.841 153.08 151.169 153.874 148.39 153.874C144.818 153.874 131.519 153.676 126.457 153.676C106.211 153.676 81.301 152.882 65.0249 151.79C65.2234 155.76 65.8189 168.066 66.1166 172.235C66.6128 178.388 66.7121 179.579 68.3 180.67C69.0939 181.167 70.3841 181.762 74.0562 182.06C108.99 184.541 136.878 184.739 164.27 183.251C176.179 182.655 181.042 181.762 185.31 177.991C188.386 175.113 189.875 170.647 190.172 163.203C190.371 156.951 190.669 146.034 190.768 142.66Z" fill="#ABEBF4"/>
</svg>
