<svg width="256" height="256" viewBox="0 0 256 256" fill="none" xmlns="http://www.w3.org/2000/svg">
<mask id="mask0_245_661" style="mask-type:alpha" maskUnits="userSpaceOnUse" x="0" y="0" width="256" height="256">
<path d="M256 128C256 198.692 198.692 256 128 256C57.3076 256 0 198.692 0 128C0 57.3076 57.3076 0 128 0C198.692 0 256 57.3076 256 128Z" fill="white"/>
</mask>
<g mask="url(#mask0_245_661)">
<path d="M256 128C256 198.692 198.692 256 128 256C57.3076 256 0 198.692 0 128C0 57.3076 57.3076 0 128 0C198.692 0 256 57.3076 256 128Z" fill="black"/>
<path d="M238.182 128C238.182 188.852 188.852 238.182 128 238.182V273.818C208.533 273.818 273.818 208.533 273.818 128H238.182ZM128 238.182C67.148 238.182 17.8176 188.852 17.8176 128H-17.8176C-17.8176 208.533 47.4673 273.818 128 273.818V238.182ZM17.8176 128C17.8176 67.148 67.148 17.8176 128 17.8176V-17.8176C47.4673 -17.8176 -17.8176 47.4672 -17.8176 128H17.8176ZM128 17.8176C188.852 17.8176 238.182 67.148 238.182 128H273.818C273.818 47.4672 208.533 -17.8176 128 -17.8176V17.8176Z" fill="#6764FB"/>
<path fill-rule="evenodd" clip-rule="evenodd" d="M179.2 81.9175C179.2 79.09 176.908 76.7975 174.08 76.7975H97.0905C93.7262 76.7975 90.7824 77.2854 88.2593 78.2615C85.7362 79.3124 83.6334 80.7012 81.9515 82.4279C80.1991 84.2297 78.9025 86.2567 78.0613 88.509C77.2203 90.8363 76.7997 93.2386 76.7997 95.7161V105.353C76.7997 112.204 82.3536 117.757 89.2045 117.757H148.48L117.76 97.2775H174.08C176.908 97.2775 179.2 94.9853 179.2 92.1575V81.9175ZM76.7974 174.081C76.7974 176.909 79.0899 179.201 81.9174 179.201H158.907C162.271 179.201 165.215 178.713 167.738 177.738C170.261 176.686 172.364 175.298 174.046 173.571C175.798 171.769 177.095 169.742 177.936 167.49C178.777 165.163 179.197 162.76 179.197 160.283V150.646C179.197 143.795 173.644 138.241 166.793 138.241H107.517L138.237 158.721H81.9174C79.0899 158.721 76.7974 161.014 76.7974 163.841V174.081Z" fill="#6764FB"/>
</g>
</svg>
