<svg width="256" height="256" viewBox="0 0 256 256" fill="none" xmlns="http://www.w3.org/2000/svg">
<path d="M128.269 248.619C194.883 248.619 248.885 194.617 248.885 128.003C248.885 61.388 194.883 7.38635 128.269 7.38635C61.6541 7.38635 7.6524 61.388 7.6524 128.003C7.6524 194.617 61.6541 248.619 128.269 248.619Z" fill="#55A335" stroke="#55A335" stroke-width="4.131" stroke-linecap="round" stroke-linejoin="round"/>
<path d="M128.269 225.569C182.154 225.569 225.837 181.886 225.837 128C225.837 74.1144 182.154 30.4314 128.269 30.4314C74.3829 30.4314 30.7 74.1144 30.7 128C30.7 181.886 74.3829 225.569 128.269 225.569Z" stroke="black" stroke-width="5.5" stroke-linecap="round" stroke-linejoin="round"/>
<path d="M170.656 115.187V112.096V108.995C173.884 108.914 174.564 107.973 175.177 107.14C175.763 106.255 175.806 105.097 175.803 105.09V105.067C175.823 97.351 170.954 89.987 162.324 84.3576C153.738 78.7651 141.578 75.1886 128.133 75.1952C114.687 75.1886 102.528 78.7651 93.9513 84.3576C85.3147 89.987 80.4522 97.351 80.4723 105.067V105.09C80.4891 105.09 80.5125 106.255 81.0885 107.14C81.7114 107.973 82.3945 108.914 85.6127 108.995H170.656V112.096V115.187H85.6127C80.7436 115.277 77.3043 112.933 75.8275 110.398C74.3072 107.903 74.2938 105.633 74.2804 105.09V105.067C74.6688 84.0294 99.2893 69.0602 128.133 68.9999C156.989 69.0602 181.6 84.0294 181.995 105.067V105.09C181.978 105.633 181.955 107.896 180.434 110.398C178.994 112.889 175.649 115.193 170.927 115.193C170.84 115.193 170.753 115.187 170.656 115.187Z" fill="black"/>
<path d="M94.6256 187.85C86.8061 187.787 81.8934 187.157 78.2868 184.25C74.67 181.139 74.2916 176.739 74.2782 171.984V171.97C74.2916 171.404 74.3419 169.288 75.966 167.044C77.5969 164.757 80.9122 162.945 85.614 162.995H170.657V166.086V169.187H85.614C82.235 169.241 81.4079 170.159 80.9491 170.714C80.5539 171.217 80.4802 171.779 80.4702 171.923V171.97V171.984C80.4601 176.608 81.0663 178.584 82.2652 179.512C83.4607 180.65 87.1745 181.715 94.6256 181.655H158.387C167.472 181.699 172.064 180.433 173.745 179.05C175.309 177.861 175.764 176.153 175.804 172.138C175.804 172.094 175.804 172.034 175.798 171.97C175.774 171.954 175.804 171.873 175.744 171.615C175.667 171.354 175.55 171.019 175.329 170.714C174.857 170.159 174.046 169.241 170.657 169.187V166.086V162.995C175.366 162.945 178.684 164.757 180.308 167.044C181.742 169.017 181.939 170.915 181.986 171.712C181.996 171.733 181.996 171.779 181.996 171.846L182 171.984C182.02 176.247 181.524 180.895 177.505 183.966C173.567 186.866 167.901 187.793 158.387 187.85H94.6256Z" fill="black"/>
<path d="M83.7779 157.035C78.6677 157.022 74.3075 153.073 74.2841 147.886C74.3075 142.679 78.6677 138.747 83.7779 138.727H172.508C177.608 138.747 181.969 142.679 181.995 147.886C181.969 153.073 177.608 157.022 172.508 157.035H83.7779ZM80.4693 147.886C80.4693 149.369 81.8189 150.82 83.7779 150.833H172.508C174.444 150.82 175.803 149.369 175.803 147.886C175.803 146.379 174.444 144.936 172.508 144.916H83.7779C81.8189 144.936 80.4693 146.379 80.4693 147.886Z" fill="black"/>
<path d="M119.075 128.426C118.184 127.408 118.151 126.473 115.167 126.279C113.181 126.279 112.083 127.394 111.607 127.95C111.473 128.094 111.48 128.094 111.443 128.171C111.242 128.513 108.5 132.736 102.482 132.792C96.7653 132.97 93.7748 128.653 93.6877 128.426C92.8003 127.394 92.7668 126.473 89.7797 126.279C87.7938 126.279 86.6988 127.394 86.2132 127.95C86.0926 128.094 86.0926 128.094 86.0591 128.171C85.8649 128.513 83.1222 132.736 77.0977 132.792C75.3865 132.792 74.0001 131.406 74.0001 129.708C74.0001 127.99 75.3865 126.607 77.0977 126.607C79.1606 126.607 80.2523 125.519 80.7077 125.01C80.8216 124.879 80.8115 124.879 80.7814 124.936C80.9689 124.621 83.6614 120.164 89.7797 120.074C95.5229 119.889 98.4698 124.377 98.567 124.611C99.2367 125.351 99.4678 126.426 102.482 126.607C104.538 126.607 105.633 125.519 106.082 125.01C106.142 124.95 106.165 124.923 106.179 124.909C106.49 124.397 109.189 120.164 115.167 120.074C120.897 119.889 123.847 124.367 123.941 124.611C124.624 125.358 124.845 126.426 127.859 126.607C129.909 126.607 131.004 125.519 131.459 125.01C131.513 124.97 131.536 124.936 131.546 124.923C131.844 124.441 134.547 120.164 140.548 120.074C146.288 119.889 149.235 124.377 149.332 124.611C150.001 125.351 150.226 126.426 153.223 126.607C154.944 126.607 156.331 127.99 156.331 129.708C156.331 131.406 154.944 132.792 153.223 132.792C147.53 132.97 144.536 128.653 144.456 128.426C143.565 127.394 143.535 126.473 140.548 126.279C138.558 126.279 137.453 127.394 136.978 127.95C136.854 128.094 136.861 128.111 136.82 128.171C136.613 128.496 133.884 132.736 127.859 132.792C127.745 132.799 127.625 132.809 127.511 132.809C122.035 132.809 119.152 128.633 119.075 128.426Z" fill="black"/>
<path d="M169.835 128.426C168.934 127.394 168.904 126.473 165.92 126.279C163.934 126.279 162.829 127.394 162.354 127.95C162.237 128.094 162.237 128.094 162.2 128.171C161.999 128.499 159.266 132.736 153.225 132.792C151.527 132.792 150.151 131.406 150.151 129.708C150.151 127.99 151.527 126.607 153.225 126.607C155.301 126.607 156.393 125.519 156.852 125.01C156.959 124.879 156.959 124.879 156.922 124.936C157.106 124.621 159.802 120.164 165.92 120.087C171.657 119.889 174.607 124.377 174.708 124.621C175.367 125.345 175.615 126.426 178.622 126.607C180.33 126.607 181.71 127.99 181.71 129.708C181.71 131.406 180.33 132.792 178.622 132.792C178.505 132.799 178.401 132.809 178.294 132.809C172.792 132.799 169.915 128.653 169.835 128.426Z" fill="black"/>
</svg>
