<svg width="256" height="256" viewBox="0 0 256 256" fill="none" xmlns="http://www.w3.org/2000/svg">
<path d="M-1.06692e-05 128C-1.06692e-05 198.693 57.3073 256 128 256C198.692 256 256 198.693 256 128C256 57.3076 198.692 0 128 0C57.3073 0 -1.06692e-05 57.3076 -1.06692e-05 128Z" fill="#5E5BFA"/>
<path d="M189.997 180.452C188.893 179.702 187.862 178.578 187.349 176.983C186.778 175.21 187.115 173.65 187.382 172.787C187.391 172.758 187.4 172.729 187.409 172.7L187.197 171.458C186.609 171.788 185.932 172.233 185.161 172.775C184.975 172.906 184.715 173.091 184.444 173.284C184.089 173.538 183.715 173.805 183.465 173.979C183.036 174.277 182.428 174.692 181.783 175.035C164.713 185.644 150.597 190.017 139.385 189.476C127.794 188.915 119.664 183.084 115.471 174.574C111.418 166.348 111.277 156.155 114.118 146.713C116.976 137.21 122.988 127.974 131.949 121.582C147.049 110.812 160.885 94.4366 167.882 80.5123C171.435 73.4405 172.848 67.7374 172.475 64.0134C172.302 62.2803 171.771 61.2318 171.136 60.5571C170.5 59.8818 169.342 59.1372 167.111 58.7698C162.385 57.9912 156.919 56.2892 151.372 54.5621C149.219 53.8915 147.054 53.2171 144.914 52.5915C136.919 50.2537 128.455 48.2897 119.559 48.3064C102.304 48.3388 82.0535 55.8304 60.732 86.9951C33.3423 127.03 48.3793 171.766 79.9326 195.268C95.6687 206.989 115.302 213.21 135.477 210.844C153.643 208.715 172.669 199.573 189.997 180.452ZM186.82 170.09C186.82 170.091 186.826 170.103 186.84 170.123C186.828 170.099 186.821 170.09 186.82 170.09ZM188.535 170.872C188.536 170.871 188.519 170.873 188.481 170.882C188.516 170.878 188.534 170.874 188.535 170.872Z" fill="white" stroke="black" stroke-width="17.6755"/>
<path d="M174.318 60.8143C174.318 60.8143 125.387 47.785 114.675 47.785C103.962 47.785 61.1542 68.5724 48.6609 106.56C30.9509 160.413 79.1232 195.723 84.5633 192.262C32.737 149.411 117.57 70.204 159.262 76.1591C164.474 76.9038 161.579 81.3707 161.579 81.3707L162.737 92.9519L171.423 78.4753L174.318 60.8143Z" fill="black"/>
<path d="M55.7899 90.361C40.3384 117.562 43.5497 101.988 46.9798 133.083C40.6323 122.814 30.7066 130.503 26.6077 134.429C25.8729 135.133 24.6606 134.697 24.695 133.68C24.8512 129.068 26.1726 119.101 33.8077 108.409C44.2769 93.7473 55.7899 90.361 55.7899 90.361Z" fill="black"/>
<path d="M46.9798 133.083C46.3891 131.623 45.4665 129.345 45.4665 129.345M46.9798 133.083C43.5497 101.988 40.3384 117.562 55.7899 90.361C55.7899 90.361 44.2769 93.7473 33.8077 108.409C26.1726 119.101 24.8512 129.068 24.695 133.68C24.6606 134.697 25.8729 135.133 26.6077 134.429C30.7066 130.503 40.6323 122.814 46.9798 133.083Z" stroke="black" stroke-width="0.993005"/>
<path d="M180.106 128.935C186.626 139.973 200.002 139.144 199.746 152.309C187.798 178.853 187.728 176.949 187.728 176.949C165.597 164.517 174.692 137.066 177.975 128.992C178.347 128.079 179.605 128.086 180.106 128.935Z" fill="black"/>
<path d="M230.272 153.339C217.561 154.997 209.978 143.947 199.762 152.253C186.2 178.01 187.744 176.894 187.744 176.894C211.166 186.679 227.198 162.612 231.539 155.053C232.029 154.199 231.249 153.212 230.272 153.339Z" fill="black"/>
<path d="M123.65 136.962C123.65 136.962 110.91 149.993 117.57 152.018C125.874 146.907 140.753 150.879 148.047 153.339C149.843 153.945 151.603 152.351 150.956 150.569C148.476 143.745 142.352 131.113 130.599 129.435C123.65 127.696 123.65 136.962 123.65 136.962Z" fill="black"/>
<path d="M115.833 74.4301C117.281 72.4037 120.175 66.9023 111.2 66.9023C102.224 66.9023 88.5101 77.0654 85.7215 80.8249C86.5898 83.1161 92.3805 83.6287 95.2758 83.4059C98.1711 83.1831 103.093 82.7067 106.857 80.8249C110.621 78.9431 114.385 76.4572 115.833 74.4301Z" fill="white"/>
</svg>
