<svg width="256" height="256" viewBox="0 0 256 256" fill="none" xmlns="http://www.w3.org/2000/svg">
<path d="M128 256C198.692 256 256 198.692 256 128C256 57.3075 198.692 0 128 0C57.3075 0 0 57.3075 0 128C0 198.692 57.3075 256 128 256Z" fill="black"/>
<path fill-rule="evenodd" clip-rule="evenodd" d="M58.4 111.26H179.64C180.385 111.259 181.123 111.407 181.81 111.695C182.497 111.984 183.119 112.407 183.64 112.94L202.82 132.24C203.611 133.032 204.149 134.04 204.367 135.137C204.585 136.234 204.473 137.372 204.045 138.405C203.617 139.439 202.892 140.323 201.962 140.945C201.032 141.567 199.939 141.899 198.82 141.9H77.58C76.8345 141.904 76.096 141.757 75.4087 141.468C74.7214 141.179 74.0994 140.755 73.58 140.22L54.4 120.9C53.6162 120.107 53.0838 119.101 52.8697 118.007C52.6556 116.913 52.7692 115.78 53.1965 114.751C53.6237 113.721 54.3454 112.841 55.2711 112.22C56.1968 111.599 57.2853 111.265 58.4 111.26ZM54.4 85.6601L73.58 66.34C74.6454 65.2857 76.0811 64.6899 77.58 64.6801H198.8C199.915 64.6848 201.003 65.0187 201.929 65.6397C202.855 66.2607 203.576 67.1412 204.004 68.1708C204.431 69.2004 204.544 70.3332 204.33 71.4272C204.116 72.5211 203.584 73.5275 202.8 74.3201L183.64 93.6201C182.581 94.6873 181.143 95.2914 179.64 95.3001H58.4C57.2853 95.2953 56.1968 94.9614 55.2711 94.3404C54.3454 93.7194 53.6237 92.8389 53.1965 91.8093C52.7692 90.7797 52.6556 89.6469 52.8697 88.5529C53.0838 87.459 53.6162 86.4526 54.4 85.6601V85.6601ZM202.82 167.5L183.64 186.8C182.581 187.867 181.143 188.471 179.64 188.48H58.4C57.2853 188.475 56.1968 188.141 55.2711 187.52C54.3454 186.899 53.6237 186.019 53.1965 184.989C52.7692 183.96 52.6556 182.827 52.8697 181.733C53.0838 180.639 53.6162 179.633 54.4 178.84L73.58 159.52C74.6454 158.466 76.0811 157.87 77.58 157.86H198.8C199.916 157.861 201.008 158.192 201.936 158.811C202.865 159.431 203.59 160.311 204.02 161.342C204.449 162.372 204.565 163.506 204.351 164.602C204.138 165.698 203.605 166.706 202.82 167.5V167.5Z" fill="url(#paint0_linear_245_668)"/>
<defs>
<linearGradient id="paint0_linear_245_668" x1="61.38" y1="193.82" x2="195.84" y2="59.34" gradientUnits="userSpaceOnUse">
<stop stop-color="#CB4EE8"/>
<stop offset="1" stop-color="#10F4B1"/>
</linearGradient>
</defs>
</svg>
