<svg width="256" height="256" viewBox="0 0 256 256" fill="none" xmlns="http://www.w3.org/2000/svg">
<path d="M0 128C0 57.3076 57.3076 0 128 0V0C198.692 0 256 57.3076 256 128V128C256 198.692 198.692 256 128 256V256C57.3076 256 0 198.692 0 128V128Z" fill="#E84142"/>
<path d="M170.652 62C159.004 68.3387 139.358 74.6774 121.255 78.4806C123.501 82.143 126.167 88.6226 127.149 92.5667C146.796 88.7634 169.249 82.8473 186.229 74.9591L170.652 62ZM117.186 73.8323V119.189C117.186 138.487 115.221 162.292 95.9956 179.055C99.9249 181.449 105.959 187.788 108.064 191.732C130.938 172.153 134.166 140.741 134.166 119.33V81.2979C136.832 80.7344 137.814 80.0301 137.955 78.6215L117.186 73.8323ZM127.149 109.47V125.81H191V109.47H127.149ZM154.373 116.372V193H171.354V116.372H154.373ZM73.4022 73.4097V88.9043H92.9083V138.628H73.4022V154.263H109.046V73.4097H73.4022ZM64 73.4097V165.814H79.8575V73.4097H64Z" fill="white"/>
</svg>
