<svg width="256" height="256" viewBox="0 0 256 256" fill="none" xmlns="http://www.w3.org/2000/svg">
<path d="M128 256C198.934 256 256 198.934 256 128C256 57.0662 198.934 0 128 0C57.0662 0 0 57.0662 0 128C0 198.934 57.0662 256 128 256Z" fill="url(#paint0_linear_245_118)"/>
<path d="M151.402 140.948C151.402 128 143.956 123.561 129.063 121.711C118.425 120.231 116.297 117.272 116.297 112.092C116.297 106.912 119.844 103.584 126.935 103.584C133.318 103.584 136.864 105.804 138.637 111.353C138.992 112.462 140.055 113.202 141.119 113.202H146.792C148.211 113.202 149.275 112.092 149.275 110.613V110.243C147.856 102.104 141.473 95.8151 133.318 95.0755V86.1968C133.318 84.7168 132.254 83.6069 130.481 83.2367H125.163C123.744 83.2367 122.68 84.3465 122.325 86.1968V94.7052C111.687 96.1853 104.951 103.584 104.951 112.833C104.951 125.041 112.042 129.85 126.935 131.7C136.864 133.549 140.055 135.769 140.055 141.688C140.055 147.608 135.091 151.677 128.354 151.677C119.134 151.677 115.943 147.607 114.879 142.058C114.525 140.578 113.461 139.838 112.397 139.838H106.369C104.951 139.838 103.887 140.948 103.887 142.428V142.798C105.305 152.046 110.979 158.705 122.68 160.555V169.434C122.68 170.913 123.744 172.023 125.517 172.393H130.835C132.254 172.393 133.318 171.283 133.673 169.434V160.555C144.311 158.705 151.402 150.936 151.402 140.948V140.948Z" fill="white"/>
<path d="M109.916 179.792C82.2574 169.434 68.0734 137.249 78.3572 108.763C83.6761 93.225 95.3777 81.3871 109.916 75.8379C111.334 75.0983 112.043 73.9885 112.043 72.1382V66.9593C112.043 65.4792 111.334 64.3694 109.916 64C109.561 64 108.852 64 108.497 64.3693C74.8109 75.4677 56.3718 112.833 67.0096 147.977C73.3923 168.694 88.6401 184.601 108.497 191.26C109.916 192 111.334 191.26 111.688 189.78C112.043 189.411 112.043 189.041 112.043 188.301V183.121C112.043 182.012 110.979 180.532 109.916 179.792ZM147.503 64.3693C146.084 63.6298 144.666 64.3694 144.312 65.8494C143.957 66.2197 143.957 66.589 143.957 67.3295V72.5084C143.957 73.9885 145.02 75.4677 146.084 76.2081C173.743 86.566 187.927 118.751 177.643 147.237C172.324 162.775 160.622 174.613 146.084 180.162C144.666 180.902 143.957 182.012 143.957 183.862V189.041C143.957 190.521 144.666 191.631 146.084 192C146.439 192 147.148 192 147.503 191.631C181.189 180.532 199.628 143.167 188.99 108.023C182.608 86.9362 167.005 71.0283 147.503 64.3693V64.3693Z" fill="white"/>
<defs>
<linearGradient id="paint0_linear_245_118" x1="128" y1="0" x2="128" y2="256" gradientUnits="userSpaceOnUse">
<stop stop-color="#739CF7"/>
<stop offset="1" stop-color="#4A6DF2"/>
</linearGradient>
</defs>
</svg>
