<svg width="256" height="256" viewBox="0 0 256 256" fill="none" xmlns="http://www.w3.org/2000/svg">
<path d="M128 256C198.934 256 256 198.934 256 128C256 57.0662 198.934 0 128 0C57.0662 0 0 57.0662 0 128C0 198.934 57.0662 256 128 256Z" fill="url(#paint0_linear_245_123)"/>
<path fill-rule="evenodd" clip-rule="evenodd" d="M141.022 135.379C140.295 135.433 136.537 135.658 128.155 135.658C121.488 135.658 116.754 135.458 115.093 135.379C89.3285 134.245 70.0973 129.76 70.0973 124.39C70.0973 119.02 89.3285 114.541 115.093 113.39V130.912C116.778 131.033 121.603 131.318 128.27 131.318C136.27 131.318 140.276 130.985 140.998 130.918V113.402C166.708 114.547 185.897 119.033 185.897 124.39C185.897 129.748 166.714 134.233 140.998 135.373L141.022 135.379ZM141.022 111.59V95.9102H176.902V72H79.2128V95.9102H115.087V111.584C85.9283 112.923 64 118.699 64 125.621C64 132.542 85.9283 138.312 115.087 139.658V189.903H141.016V139.64C170.108 138.3 192 132.53 192 125.615C192 118.699 170.126 112.929 141.016 111.584L141.022 111.59Z" fill="white"/>
<defs>
<linearGradient id="paint0_linear_245_123" x1="128" y1="0" x2="128" y2="256" gradientUnits="userSpaceOnUse">
<stop stop-color="#50AF95"/>
<stop offset="1" stop-color="#298F52"/>
<stop offset="1" stop-color="#50AF95"/>
</linearGradient>
</defs>
</svg>
