<svg width="256" height="256" viewBox="0 0 256 256" fill="none" xmlns="http://www.w3.org/2000/svg">
<circle cx="128" cy="128" r="128" fill="#7FB9ED"/>
<circle cx="128" cy="128" r="128" fill="url(#paint0_linear_245_101)" fill-opacity="0.2"/>
<path fill-rule="evenodd" clip-rule="evenodd" d="M74.3921 186.743C79.7494 196.228 87.5369 204.121 96.9568 209.613C106.377 215.106 117.09 218 128 218C138.91 218 149.623 215.106 159.043 209.613C168.463 204.121 176.251 196.228 181.608 186.743C187.106 177.241 190 166.461 190 155.489C190 144.516 187.106 133.737 181.608 124.234L134.459 41.7654C133.813 40.6228 132.875 39.672 131.74 39.0103C130.605 38.3487 129.314 38 128 38C126.686 38 125.395 38.3487 124.26 39.0103C123.125 39.672 122.187 40.6228 121.541 41.7654L74.3921 124.234C68.8944 133.737 66 144.516 66 155.489C66 166.461 68.8944 177.241 74.3921 186.743V186.743ZM114.718 80.9996L124.771 63.4158C125.093 62.8445 125.563 62.3691 126.13 62.0383C126.697 61.7075 127.343 61.5331 128 61.5331C128.657 61.5331 129.303 61.7075 129.87 62.0383C130.437 62.3691 130.907 62.8445 131.229 63.4158L169.903 131.06C173.374 137.057 175.527 143.724 176.217 150.616C176.906 157.508 176.118 164.468 173.904 171.032C173.423 168.795 172.761 166.6 171.925 164.469C166.583 150.854 154.505 140.349 136.018 133.242C123.308 128.373 115.195 121.213 111.899 111.957C107.653 100.031 112.087 87.0237 114.718 80.9996ZM97.5764 110.983L86.0972 131.06C81.7995 138.488 79.5369 146.914 79.5369 155.491C79.5369 164.068 81.7995 172.494 86.0972 179.922C89.5713 186.064 94.3577 191.367 100.117 195.455C105.875 199.544 112.466 202.317 119.419 203.577C126.372 204.838 133.519 204.555 140.35 202.75C147.182 200.944 153.532 197.659 158.948 193.129C161.942 185.492 162.049 177.029 159.249 169.318C155.326 159.482 145.882 151.63 131.179 145.974C114.56 139.608 103.764 129.669 99.0942 116.443C98.4652 114.659 97.9581 112.835 97.5764 110.983V110.983Z" fill="white"/>
<defs>
<linearGradient id="paint0_linear_245_101" x1="55" y1="225" x2="209" y2="38" gradientUnits="userSpaceOnUse">
<stop stop-color="#1D45A4"/>
<stop offset="1" stop-color="#7FB9ED"/>
</linearGradient>
</defs>
</svg>
